<svg width="113" height="128" viewBox="0 0 113 128" fill="none" xmlns="http://www.w3.org/2000/svg">
<g clip-path="url(#clip0_655_11412)">
<path d="M108.425 122.077L109.08 121.703L106.134 120.334C105.695 120.135 105.247 119.967 104.792 119.792C104.792 119.792 102.82 119.076 102.453 118.94C101.735 118.686 101.008 118.415 100.314 118.152L99.8186 117.953L99.6111 117.882L99.4514 117.81C99.1959 117.706 98.9325 117.595 98.669 117.468C97.9186 117.117 97.1841 116.735 96.4496 116.353L96.2021 116.226L97.9265 106.258C98.3577 103.766 98.7967 101.267 99.2518 98.7748C99.659 96.4899 99.9464 94.4519 100.146 92.5412C100.306 90.9888 100.449 89.4363 100.609 87.8043C100.737 86.4748 100.864 85.1453 101 83.752H101.08L101.136 83.2505C101.136 83.2505 101.591 78.9913 101.735 77.5344C101.862 77.5503 101.99 77.5583 102.126 77.5583L102.341 77.5503C103.866 77.4229 104.457 76.0536 104.713 75.4485C105.088 74.5012 105.375 73.5538 105.575 72.6462C105.91 71.3087 106.166 69.9713 106.373 68.8408C106.892 65.9827 107.291 63.0609 107.579 60.1631C107.722 58.6743 107.802 57.4722 107.842 56.3815C107.874 55.6571 107.874 54.9246 107.882 54.2002L107.898 52.7671C107.93 50.5937 107.962 48.1258 107.938 45.7374C107.938 45.1005 107.922 44.4398 107.898 43.6834C107.882 43.0386 107.858 42.3858 107.826 41.8365V41.6215C107.73 39.6153 107.587 37.9434 107.379 36.3751L107.65 35.6984L107.219 35.2685C107.132 34.7032 107.028 34.146 106.916 33.5807C106.597 32.0283 106.126 30.4997 105.519 29.0349C104.8 27.2357 103.898 25.516 102.852 23.9556C101.391 21.4718 98.9165 19.7203 95.9865 19.1391L95.8029 19.1232C95.4437 19.1153 95.0684 19.0356 94.8449 18.9401C94.5335 18.765 94.2461 18.5182 94.0306 18.2316C93.6873 17.7778 93.4079 17.2921 93.2003 16.7826C94.7571 15.5566 95.7391 13.7415 95.9307 11.7114C95.9626 10.9232 95.8828 10.1191 95.7151 9.41854C95.5954 8.80553 95.4277 8.20048 95.2281 7.63521C95.2121 7.57949 95.1882 7.52376 95.1722 7.47599C95.2361 7.17347 95.2121 6.86298 95.1243 6.56842C94.9327 5.89172 93.0566 -0.0234375 87.4043 -0.0234375C86.7416 -0.0234375 86.0391 0.0641354 85.3765 0.23132C83.676 0.589573 82.1591 1.5688 81.0973 2.96996C80.9616 3.16103 80.8338 3.36006 80.7141 3.56705C80.0674 4.08453 79.5407 4.71346 79.0936 5.53346L78.7343 6.38531L79.2293 7.14162C79.2772 7.22123 79.3331 7.29288 79.397 7.35657C79.3251 7.48395 79.2532 7.61133 79.1814 7.77055L79.1255 7.93774C79.0297 8.25621 78.9339 8.8931 79.4369 9.5698C79.4768 9.62553 79.5566 9.72107 79.6684 9.83252C79.7003 10.0554 79.7482 10.2863 79.7961 10.5092C80.1073 11.783 80.8578 12.2288 81.4805 12.3881C81.6561 13.1444 81.9116 13.9166 82.2309 14.6888C82.5902 15.5168 83.0772 16.2652 83.6839 16.9259C83.7159 16.9657 83.7558 16.9976 83.7877 17.0374C83.7957 17.125 83.8037 17.2125 83.7877 17.3081C83.7718 17.738 83.6041 18.152 83.3327 18.4465C82.9654 18.8207 82.5263 19.0993 81.9595 19.3382C81.9116 19.3621 81.8557 19.3859 81.8557 19.3859L81.712 19.4417C79.2213 20.5005 76.5708 21.6389 74.024 22.9048C73.0501 23.3586 72.108 23.876 71.2138 24.4492C70.3915 25.0065 69.6331 25.6275 69.0663 26.1052C67.6133 27.3232 66.0964 28.7085 64.2762 30.4679C62.895 31.7894 61.5378 33.1428 60.1966 34.4883L59.8533 34.8306C59.4621 35.2207 59.0549 35.6188 58.6478 36.1044C57.8814 37.0438 57.2108 38.0549 56.6519 39.1058C55.2308 41.733 54.201 44.5512 53.6022 47.4809C53.4026 48.4602 53.2829 49.4235 53.1631 50.3549L52.8837 52.5044C52.7959 53.2209 52.7001 53.9295 52.6202 54.638C52.4286 56.1745 52.229 57.8066 52.0774 59.4625C51.4546 59.3908 50.8239 59.359 50.2012 59.359C50.0096 59.359 49.818 59.359 49.7861 59.367H49.6184C48.6923 59.367 47.7982 59.7093 47.0557 60.394L46.944 60.5213C46.3691 61.2378 46.1935 62.44 47.1755 63.3794C47.4868 63.674 47.8062 63.881 48.1335 64.0879C48.2373 64.1516 48.3411 64.2153 48.4129 64.279C48.5167 64.3666 48.6045 64.4701 48.6764 64.5815C48.6604 64.7965 48.6125 65.0114 48.5486 65.2184C48.0377 65.1468 47.5188 65.107 46.9599 65.107C42.4013 65.107 40.5013 66.8744 39.9264 68.379C39.2798 67.9969 38.705 67.5033 38.218 66.8744L38.1062 66.7549C37.4994 66.1658 36.2221 65.1786 34.4657 65.1786C32.7093 65.1786 31.1366 66.1101 29.7395 67.9411C29.6037 68.1243 29.476 68.3074 29.3563 68.4984C29.013 68.6577 28.7096 68.9124 28.4701 69.2468C28.2865 69.5175 27.7596 70.4808 28.5419 71.6988C28.7096 74.8435 31.416 77.2478 32.5656 78.1315V78.1792L33.3241 78.6728C34.0586 79.1505 34.7851 79.5406 35.5036 79.859C34.8968 80.0342 34.306 80.2889 33.7472 80.6153C32.5576 81.3796 31.5517 82.3748 30.7614 83.553C29.8592 84.8586 29.1247 86.2757 28.5819 87.7724C27.2646 91.4107 26.554 95.2241 26.4822 99.0853C26.3066 103.153 26.7456 107.214 27.7995 111.162C28.2785 112.842 28.9172 114.474 29.6916 116.019C30.1227 116.855 30.6336 117.651 31.2084 118.391C28.5819 118.351 25.7637 118.335 22.8098 118.335C-0.039064 118.335 -0.0390625 118.837 -0.0390625 120.708C-0.0390625 122.579 -0.039064 123.08 22.8098 123.08C45.6586 123.08 45.6586 122.579 45.6586 120.708C45.6586 119.983 45.3552 119.561 44.972 119.315C45.8183 118.288 46.5767 117.022 47.2633 115.461C47.6305 114.633 47.9579 113.766 48.2453 112.882C48.4209 113.328 48.5806 113.758 48.5806 113.758C48.6444 113.965 48.7243 114.164 48.8041 114.371V114.419L48.9318 114.721C49.4188 115.891 50.6962 116.019 51.2231 116.019H53.2429C53.6501 116.019 53.9854 115.947 54.2489 115.836C54.664 117.428 55.2149 119.012 55.8935 120.549C56.3246 121.584 56.8754 122.579 57.5301 123.51C54.9035 123.478 52.0534 123.462 49.0915 123.462C26.2427 123.462 26.2427 123.813 26.2427 125.731C26.2427 127.65 26.2427 128.008 49.0915 128.008C67.0385 128.008 70.3117 127.746 71.3655 127.013C74.8463 127.65 81.1931 127.976 90.2464 127.976C112.888 127.976 112.888 126.042 112.888 124.625C112.888 123.04 111.491 122.491 108.385 122.093L108.425 122.077ZM53.0114 112.165H52.7799C52.6921 111.935 52.6043 111.704 52.5164 111.441L51.279 108.177C51.75 107.062 52.0215 105.908 52.0774 104.754C52.1093 104.467 52.1253 104.172 52.1253 103.886C52.3328 104.165 52.5643 104.419 52.8198 104.634C52.8518 107.166 53.0833 109.705 53.5064 112.197C53.3467 112.173 53.1791 112.165 53.0034 112.165H53.0114ZM65.338 58.6425C64.5157 58.9848 64.0686 59.765 64.1963 60.6248C64.2682 61.1662 64.1724 61.7474 63.9409 62.2011C63.9089 62.2569 63.877 62.3046 63.8051 62.3922C63.7732 62.432 63.7413 62.4639 63.6215 62.5753C63.5896 62.5992 63.5656 62.6231 63.5337 62.647C63.4299 62.7027 63.3501 62.7584 63.3421 62.7664L63.2383 62.8142C63.0547 62.9017 62.8551 62.9734 62.6395 63.0371H62.44C62.2883 60.9831 61.0349 60.4656 60.46 60.3382L60.4201 60.3143C60.4201 60.3143 60.3962 60.2666 60.3882 60.2507C60.2525 59.9004 60.1886 59.5262 60.1886 59.1361C60.1886 58.2683 60.2764 57.4483 60.4441 56.684C60.7954 55.06 61.3143 53.4518 61.9769 51.8994C62.6555 50.2435 63.4459 48.6114 64.3241 47.0351C64.9787 45.8091 65.7212 44.6388 66.5116 43.572C67.0704 42.8953 67.6612 42.33 68.3398 41.8205C69.2898 41.0483 70.3516 40.2522 71.6609 39.3128C73.0101 38.3495 74.2236 37.5215 75.3812 36.7811L75.4451 36.7413C77.8402 46.1275 76.7624 53.3005 75.8842 59.0963C75.8523 59.3192 75.8203 59.5262 75.7884 59.7491C75.7006 59.5899 75.6128 59.4307 75.493 59.2396C75.3733 58.531 74.7426 57.7668 73.6488 57.7668C73.2576 57.7668 72.8984 57.8782 72.595 58.0693C71.8605 57.7429 71.0622 57.5677 70.2558 57.5677C69.9764 57.5677 69.705 57.5837 69.4894 57.6155C68.1242 57.7668 66.775 58.0932 65.5136 58.5788L65.338 58.6425ZM69.8487 81.7379C68.8747 80.894 67.7171 80.2889 66.4637 79.9864C66.312 79.3893 66.0725 78.8082 65.7451 78.2827C66.1523 78.3225 66.5674 78.3862 66.9906 78.4738L67.1103 78.4897C67.3897 78.5136 67.6851 78.5295 67.9965 78.5295C69.3617 78.5295 71.2697 78.227 72.595 76.786C73.585 75.6953 74.0081 74.2384 73.8484 72.4392C73.7606 71.4441 73.3614 70.0907 72.0202 68.8965C72.9143 68.4666 73.7366 67.8934 74.4631 67.2008L74.5669 67.0893C74.7745 66.8345 74.9661 66.5718 75.1258 66.2932C74.998 70.6639 75.5728 74.4773 76.0838 77.9165C76.2355 78.9594 76.3872 79.9625 76.5069 80.9258L76.6506 81.9528L76.8582 82.0245C76.9061 82.4703 76.954 82.9161 77.0019 83.346V83.4893C77.0977 84.2934 77.1775 85.0975 77.2574 85.9016C76.459 84.9223 75.1338 84.3253 73.6568 84.3253C73.1538 84.3253 72.6509 84.3969 72.1719 84.5322C71.5492 83.5132 70.7748 82.5738 69.8566 81.7219L69.8487 81.7379ZM78.8381 121.313C78.8381 121.385 78.8221 121.456 78.8221 121.528C76.1397 121.663 74.0161 121.83 72.4034 122.037C72.8505 121.241 73.2496 120.413 73.5849 119.561C75.1338 115.581 76.0439 111.417 76.2993 107.182C76.3792 106.091 76.4111 104.969 76.4111 103.639V103.09C77.1775 102.636 77.7524 101.967 78.1116 101.131C78.1116 101.219 78.0557 102.318 78.0557 102.318C77.9919 103.456 77.928 104.738 77.9519 106.012C77.9839 107.5 78.0877 108.957 78.2713 110.342C78.407 111.417 78.5667 112.484 78.7343 113.63C78.9738 115.223 79.2133 116.863 79.357 118.487L79.397 118.996C79.0856 119.745 78.894 120.549 78.8461 121.313H78.8381Z" fill="white"/>
<path d="M34.2683 77.2564C31.9371 75.7359 28.6239 72.1533 31.0908 68.945C33.5497 65.7366 35.865 66.8671 36.9667 67.9339C37.8129 69.0405 38.9466 69.8844 40.2479 70.37C42.2358 71.1184 43.8086 71.397 44.9023 73.65C46.004 75.9269 41.7808 82.1684 34.2683 77.2564Z" fill="black"/>
<path d="M39.5125 70.0586C38.4427 70.0984 37.4129 70.4487 36.5427 71.0697C36.3191 71.2368 37.1175 71.7304 37.5406 71.4996C38.3629 70.9741 39.297 70.6477 40.263 70.5363C40.6063 70.5203 40.9416 70.5363 41.2769 70.6079C41.3487 70.6238 41.3328 70.6079 41.3647 70.5203C40.7819 70.2497 40.1512 70.0984 39.5045 70.0586" fill="white"/>
<path d="M29.8747 70.1778C29.5075 70.7191 30.8647 71.7222 31.3756 72.0088C31.8865 72.2954 32.4214 72.5343 32.9803 72.7014C33.3156 72.789 33.4992 72.2795 33.3715 72.176C32.3576 71.7063 31.4554 71.0455 30.697 70.2255C30.6092 70.0822 30.1621 69.7717 29.8747 70.1778Z" fill="white"/>
<path d="M76.5053 93.481C76.633 92.6053 76.7847 91.833 76.8485 91.0608C76.8645 90.8936 76.8725 90.7025 76.8725 90.5115C76.8885 89.4287 76.6569 88.3699 76.2099 87.3907C75.5951 86.0214 73.232 85.4482 71.4357 86.7219C71.3559 86.5548 71.2681 86.3955 71.1882 86.2363C70.5815 85.0183 69.7432 83.9196 68.7453 82.9961C66.6137 81.1412 63.5161 80.9103 61.129 82.399C60.4983 82.8369 59.9235 83.3703 59.4445 83.9674C59.5243 82.8767 59.7159 81.794 60.0193 80.7511C60.0991 80.4963 60.171 80.2575 60.2668 80.0027C60.3147 79.8913 60.3546 79.8037 60.4025 79.7002L60.4185 79.6843C60.4185 79.6843 60.4344 79.6285 60.4584 79.6047C60.4744 79.5569 60.5063 79.5091 60.5382 79.4693C60.6899 79.1748 60.8895 78.8961 61.129 78.6573C61.153 78.6334 61.1929 78.6095 61.2088 78.5777C61.2168 78.5777 61.2328 78.5777 61.2488 78.5617C61.3046 78.5379 61.3525 78.4981 61.4004 78.4742C61.4164 78.4582 61.4324 78.4503 61.4643 78.4503C61.4723 78.4423 61.4883 78.4344 61.5122 78.4344C61.5122 78.4344 61.5122 78.4184 61.5282 78.4184C61.5761 78.4344 61.632 78.4423 61.6799 78.4662C61.8315 78.4821 62.1429 78.514 62.2547 78.3866H62.2786C62.2786 78.3866 62.3264 78.4025 62.3424 78.4105C62.3744 78.4264 62.4223 78.4503 62.4702 78.4582C62.5022 78.4742 62.5181 78.4821 62.5501 78.506L62.566 78.5219C62.6698 78.5936 62.7656 78.6732 62.8455 78.7767C63.0371 78.9916 63.1967 79.2384 63.3085 79.5091C63.4602 79.8515 63.5799 80.2097 63.6678 80.5839C63.6917 80.6635 63.8673 80.7351 63.9312 80.7749C64.0829 80.8227 64.2426 80.8466 64.4182 80.8546C64.5699 80.8546 64.9291 80.8386 64.8812 80.5918C64.7295 79.8833 64.4182 79.2225 63.9552 78.6652C63.5081 78.2353 62.9253 77.9567 62.2946 77.885C62.2706 77.5268 62.2307 77.1765 62.2068 76.8103C63.8833 76.4918 65.6077 76.5078 67.2762 76.858C69.2881 77.0491 72.5374 76.5635 72.1782 72.6147C71.9866 70.4095 69.9029 69.1676 67.4679 68.5307C67.9868 69.4223 68.2583 70.4334 68.2583 71.4524C68.3062 71.7868 67.1007 71.7868 67.1007 71.4763C67.0448 70.3219 66.7095 69.2074 66.1107 68.2281C64.9691 68.0371 63.8274 67.9495 62.6698 67.9575C62.3744 67.9575 62.095 67.9575 61.8156 67.9734L61.2327 68.0211C61.2167 67.9575 61.2168 67.8938 61.2009 67.8301C61.105 67.0817 60.9293 66.3334 60.6898 65.6248C61.3684 65.6885 62.0631 65.6885 62.7497 65.6248C64.2745 65.6248 65.7275 64.9402 66.6935 63.7619C67.2284 62.8862 67.4519 61.8512 67.3162 60.8402C67.5637 60.7526 67.8112 60.673 68.0587 60.5854C68.3701 60.4739 68.6734 60.3943 68.9928 60.3068C69.1445 60.2829 69.3121 60.2272 69.4877 60.1953C69.4957 60.1953 69.5037 60.1873 69.5197 60.1794C69.5676 60.1794 69.6075 60.1635 69.6554 60.1635C69.7432 60.1475 69.847 60.1157 69.9189 60.0998C70.1105 60.0838 70.2781 60.052 70.4538 60.0361C70.5336 60.0202 70.6054 60.0202 70.6853 59.9963H71.1483L71.2121 60.0122L71.2282 60.0281C71.2282 60.0281 71.2521 60.0759 71.292 60.0918C71.3878 60.2033 71.4677 60.3147 71.5555 60.4341C71.6034 60.4978 71.6433 60.5695 71.6912 60.6332C71.7151 60.6809 71.7391 60.7128 71.771 60.7606C71.787 60.7765 71.787 60.7844 71.803 60.8083C71.8908 60.9755 71.9946 61.1507 72.0824 61.3417C72.274 61.7398 72.4017 62.1538 72.5055 62.5837C72.5295 62.6951 72.5534 62.7986 72.5694 62.9101C72.5774 62.9658 72.5854 63.0295 72.5854 63.0773C72.5933 63.1171 72.6013 63.1569 72.6013 63.2046C72.6093 63.4275 72.6013 63.6664 72.5774 63.8893C72.5374 64.1202 72.4895 64.351 72.4096 64.574C72.3697 64.6934 72.3219 64.8048 72.274 64.9163C72.25 64.9641 72.2101 65.0277 72.1862 65.0675C72.1702 65.0914 72.1542 65.1153 72.1383 65.1472C72.1383 65.1631 72.1143 65.1949 72.1143 65.2109C71.763 65.6965 71.316 66.1105 70.797 66.405C70.6613 66.4926 70.5096 66.5722 70.3659 66.6359C70.1983 66.7155 70.0067 66.8031 69.839 66.8668C69.4079 67.034 68.9688 67.1852 68.5217 67.2887C68.2742 67.3524 68.0906 67.3763 67.8191 67.4241C67.7313 67.4479 67.5717 67.4718 67.5398 67.5753C67.5158 67.6868 67.6276 67.7903 67.6915 67.854C67.9948 68.0689 68.3701 68.1724 68.7373 68.1326C70.4378 67.9654 72.0345 67.225 73.2719 66.0388C73.9585 65.2188 74.2379 64.1281 74.0463 63.0693C73.9026 62.1776 73.5514 61.3338 73.0244 60.5934C72.8249 60.259 72.5614 59.9724 72.2341 59.7574C71.4517 59.3275 70.5496 59.1604 69.6634 59.2877C68.4259 59.4231 67.2124 59.7176 66.0548 60.1714C66.0309 60.1873 65.991 60.1873 65.975 60.1953C65.8712 60.2431 65.8233 60.2829 65.8393 60.4103C65.967 61.3099 65.7994 62.2254 65.3922 63.0295C65.3124 63.1728 65.2245 63.3081 65.1128 63.4355C65.009 63.5708 64.8892 63.6982 64.7535 63.8017C64.6178 63.9291 64.4741 64.0326 64.3224 64.1281C64.2506 64.1679 64.1867 64.2077 64.1228 64.2555C64.1228 64.2555 64.1148 64.2555 64.0989 64.2714H64.0828C64.0828 64.2714 64.0031 64.3192 63.9552 64.3351C63.6438 64.4864 63.3085 64.6058 62.9572 64.6934C62.9093 64.7093 62.8693 64.7093 62.8294 64.7173C62.8134 64.7173 62.7896 64.7173 62.7816 64.7332L62.5501 64.7809C62.3824 64.7969 62.2068 64.8287 62.0391 64.8446L61.5521 64.8924H61.2327C60.9533 64.9004 60.6819 64.8924 60.4105 64.8765C60.3466 64.8765 60.2828 64.8606 60.2189 64.8606H60.155C60.0752 64.8446 60.0033 64.8446 59.9235 64.8367C59.8437 64.8287 59.7717 64.8208 59.6919 64.7969C59.5881 64.773 58.9335 64.7332 59.0772 65.0118C59.3567 65.7124 59.5403 66.4448 59.6521 67.1932C59.7159 67.4877 59.7558 67.7982 59.8037 68.0928C59.3806 68.1565 59.0533 68.2202 58.6621 68.2918C58.71 68.4033 58.7419 68.5068 58.7659 68.6182C59.1092 69.5736 59.2848 70.5608 59.3247 71.5718C59.3407 71.9301 58.1671 72.0256 58.1032 71.7072C57.9516 70.6483 57.744 69.5815 57.4725 68.5466V68.5625C54.3191 69.3825 52.9858 70.9031 52.5228 72.4714L49.5529 72.7023C49.042 72.7501 48.531 72.7819 48.036 72.8297C48.0201 72.774 48.0201 72.7342 48.0201 72.6784V72.6307C48.0201 72.5033 47.8285 72.4396 47.6129 72.4316C47.5331 71.4524 47.5331 70.4652 47.6129 69.494C48.1239 69.5815 48.6268 69.7169 49.1138 69.8841C49.9361 70.1786 52.0757 69.9477 51.8601 68.666C51.7803 68.2122 51.3492 67.838 50.7504 67.5514C51.6925 66.2299 52.4749 64.5103 51.2454 63.1648C50.7664 62.7349 50.2555 62.3289 49.7206 61.9786C49.5928 61.891 49.7525 61.7159 50.0638 61.7C51.3492 61.7477 52.6266 61.9308 53.872 62.2572L53.9199 61.485C52.5467 61.1507 51.1416 61.0073 49.7206 61.0551C49.1857 61.0312 48.6508 61.2143 48.2516 61.5885C48.06 61.8194 48.1478 62.0105 48.3314 62.1936C48.6747 62.52 49.1218 62.727 49.481 63.0136C49.8882 63.3479 50.1916 63.7778 50.3592 64.2714C50.3752 65.2984 50.0559 66.2936 49.4411 67.1136C48.6508 66.9066 47.8444 66.7951 47.0301 66.7872C40.9626 66.7633 40.6353 70.2105 42.1681 70.314C43.701 70.4254 44.7468 69.6134 45.9603 69.4621C46.1998 69.4223 46.4553 69.4064 46.7028 69.4144C46.6629 69.9159 46.6549 70.4334 46.6868 70.9349C46.6868 71.6992 46.7347 72.4555 46.7746 73.2198C46.7746 73.2437 46.7906 73.2835 46.7906 73.3074V73.6656C46.7188 73.6815 46.6629 73.7373 46.6389 73.801C46.6229 73.8248 46.6229 73.8567 46.6229 73.8806C46.4553 74.1114 46.3116 74.3742 46.1759 74.613C45.8166 75.2499 45.4733 75.8947 45.138 76.5237C44.2838 78.1716 43.4774 79.8196 42.6791 81.4915C42.4476 81.9612 42.232 82.4388 42.0165 82.9085C40.8588 82.0169 39.4857 81.4516 38.0327 81.2765C36.8591 81.1571 35.6775 81.4198 34.6636 82.0249C33.6577 82.6697 32.8035 83.5216 32.1408 84.5087C31.3185 85.695 30.6559 86.9847 30.1609 88.346C28.9075 91.8091 28.2369 95.4792 28.1651 99.1653C27.9974 103.05 28.4125 106.951 29.4185 110.717C29.8655 112.293 30.4563 113.814 31.1908 115.271C31.8135 116.481 32.6199 117.579 33.5779 118.551C35.438 120.326 38.3999 121.504 40.9067 120.453C43.2539 119.45 44.7468 117.07 45.7527 114.809C46.4393 113.233 46.9742 111.585 47.3494 109.905C47.4692 109.897 47.581 109.865 47.6927 109.825C48.06 109.698 48.4033 109.491 48.6667 109.204C48.9621 109.977 49.2495 110.765 49.5369 111.537C49.7525 112.11 49.968 112.667 50.1916 113.257C50.2794 113.527 50.3832 113.798 50.495 114.069V114.116C50.5828 114.331 51.0538 114.379 51.2374 114.379H53.2573C53.393 114.379 53.8161 114.363 53.7203 114.124C53.6325 113.893 53.1694 113.862 52.9938 113.862H51.5967C51.3811 113.257 51.1496 112.667 50.9341 112.062L49.4491 108.145C49.4491 108.145 49.4731 108.106 49.4731 108.082C50.0239 106.999 50.3353 105.813 50.3992 104.595C50.4391 104.268 50.4471 103.926 50.4471 103.584C50.463 102.302 50.2475 101.028 49.8084 99.8181C49.8084 99.8101 49.8084 99.7942 49.7924 99.7783C49.8483 99.6907 49.8802 99.5872 49.9201 99.4837C50.6466 97.8517 51.3731 96.2196 52.0917 94.5717C52.2593 94.2055 52.4349 93.8233 52.5866 93.4412H52.6026C52.6505 93.3138 52.6904 93.2103 52.7383 93.0989C53.4808 91.3633 54.2233 89.6119 54.8699 87.8365C54.8859 87.7967 54.8939 87.7569 54.9178 87.7251C55.1813 87.0245 55.4048 86.292 55.6284 85.5835C55.9956 84.4689 56.4586 83.3783 56.9297 82.3035C57.6721 80.6396 58.4785 78.9916 59.3567 77.4074C59.8037 77.3278 60.2748 77.2163 60.7378 77.1128C60.7618 77.3755 60.7857 77.6542 60.8017 77.9248C60.7777 77.9408 60.7378 77.9408 60.7218 77.9487C60.5702 77.9726 60.4344 78.0363 60.2987 78.1159C59.668 78.5777 59.213 79.2305 58.9974 79.9788C58.5423 81.2845 58.2789 82.6538 58.207 84.039C58.1432 84.6759 58.1272 85.3287 58.1192 85.9656C57.6642 86.8016 57.265 87.6693 56.9297 88.561C56.8019 88.9033 56.6822 89.2297 56.5624 89.572C56.2191 90.5752 55.9477 91.5783 55.6922 92.5973C55.6443 92.7406 55.6124 92.8839 55.5884 93.0272C54.9577 95.8773 54.6145 98.7831 54.5187 101.697C54.5027 102.366 54.4947 103.018 54.4947 103.687C54.4707 107.429 54.8859 111.171 55.7481 114.817C56.1632 116.568 56.746 118.28 57.4725 119.928C58.0234 121.234 58.7659 122.444 59.668 123.519C60.4983 124.498 61.592 125.23 62.8215 125.62C64.2027 126.058 65.7036 125.971 67.0368 125.389C68.1545 124.816 69.1285 123.972 69.855 122.953C70.7412 121.727 71.4677 120.398 72.0265 118.989C73.5035 115.183 74.3816 111.179 74.6291 107.095C74.709 105.94 74.7329 104.81 74.7329 103.663C74.7329 103.114 74.7328 102.557 74.7169 101.999C76.9123 101.514 77.0561 99.2688 76.8086 97.8278C76.4174 96.4027 76.3216 94.914 76.5292 93.4412M44.7628 108.806C44.3397 110.828 43.669 112.803 42.7669 114.666C42.3518 115.51 41.8648 116.306 41.282 117.038C40.6193 117.914 39.7651 118.614 38.7911 119.108C38.5756 119.188 38.36 119.259 38.1285 119.323C38.0487 119.339 37.9928 119.347 37.9129 119.371H37.865C37.7453 119.387 37.6415 119.395 37.5217 119.395H37.3541C37.2982 119.395 37.2503 119.395 37.2024 119.379C37.1864 119.379 37.1545 119.379 37.1385 119.363H37.0906C37.0906 119.363 37.0268 119.347 37.0028 119.339C36.9629 119.339 36.931 119.323 36.899 119.299C36.8511 119.275 36.8112 119.251 36.7633 119.235C36.7394 119.227 36.7074 119.212 36.6835 119.188C36.6835 119.18 36.6675 119.172 36.6595 119.172C36.5318 119.092 36.412 118.997 36.2923 118.933C36.2364 118.877 36.1885 118.837 36.1246 118.79C35.8931 118.591 35.6775 118.368 35.462 118.153C35.454 118.129 35.4221 118.105 35.3981 118.089C35.3422 118.017 35.2943 117.938 35.2305 117.874C35.1267 117.747 35.0149 117.611 34.9111 117.468C34.4082 116.783 33.9691 116.067 33.5938 115.311C31.9892 111.808 31.079 108.034 30.9194 104.181C30.8315 102.939 30.7916 101.681 30.8315 100.439C30.8874 98.0189 31.1748 95.6066 31.6858 93.2501C32.1009 91.228 32.7715 89.2616 33.6657 87.4066C34.0808 86.5707 34.5838 85.7666 35.1426 85.0262C35.7973 84.1505 36.6595 83.4419 37.6335 82.9563C37.857 82.8608 38.0806 82.7891 38.3121 82.7254C38.376 82.7095 38.4478 82.7016 38.5117 82.7016C38.5197 82.6936 38.5356 82.6856 38.5596 82.6856C38.6634 82.6856 38.7911 82.6458 38.9029 82.6458H39.0705C39.1264 82.6538 39.1903 82.6617 39.2382 82.6617C39.2542 82.6617 39.2781 82.6777 39.3021 82.6777C39.318 82.6777 39.334 82.6777 39.35 82.6936C39.3739 82.6936 39.4138 82.7095 39.4378 82.7095C39.4617 82.7254 39.5176 82.7334 39.5416 82.7573C39.5895 82.7732 39.6374 82.7971 39.6773 82.821C39.7012 82.8369 39.7252 82.8608 39.7571 82.8687C39.7651 82.8687 39.7811 82.8687 39.7891 82.8847C39.9168 82.9643 40.0206 83.0359 40.1483 83.1394C40.2122 83.1872 40.2521 83.219 40.316 83.2668C40.5475 83.4658 40.763 83.6887 40.9786 83.9037C40.9946 83.9276 41.0265 83.9515 41.0425 83.9833C41.1063 84.047 41.1622 84.1186 41.2101 84.1823C41.258 84.246 41.3139 84.3177 41.3618 84.3814C40.9387 85.2969 40.5315 86.2284 40.1084 87.1439C39.0945 89.5004 37.9528 91.8091 36.6915 94.0462C35.6696 95.5907 34.8233 97.2546 34.1766 98.9901C34.1128 99.1891 34.0489 99.3802 34.009 99.5872C33.9611 99.7544 34.2884 99.9136 34.5599 99.9455C34.6796 99.9932 34.7914 100.017 34.9191 100.033C35.9969 100.216 37.0826 100.28 38.1764 100.224C38.7911 100.224 39.4138 100.2 40.0365 100.144C40.1244 100.129 40.2761 100.097 40.316 99.9932C40.3479 99.8818 40.2282 99.7783 40.1643 99.7146C39.8609 99.4996 39.4857 99.3961 39.1184 99.42C38.9668 99.4359 38.8151 99.4439 38.6554 99.4598C38.4877 99.4758 38.3121 99.4837 38.1445 99.4837C38.0407 99.4837 37.9449 99.4996 37.8331 99.4996H37.5856C37.0906 99.5156 36.5797 99.5156 36.0687 99.4996C35.8212 99.4837 35.5578 99.4758 35.3103 99.4359H35.2464C35.1826 99.4359 35.1187 99.42 35.0788 99.42C35.0788 99.42 35.0708 99.42 35.0548 99.4041C35.8691 97.3183 36.899 95.32 38.1205 93.4332C39.6214 90.814 40.763 87.9957 42.0244 85.2412C42.3278 85.7268 42.6232 86.2443 42.8946 86.7458C44.4035 90.0258 45.2897 93.5447 45.5212 97.1431C45.5372 97.2705 45.5372 97.3979 45.5452 97.5093C45.5452 97.5093 45.5452 97.5253 45.5292 97.5253C45.3296 96.9759 45.1061 96.4346 44.9065 95.8773C44.6909 95.32 44.4834 94.7468 44.2678 94.1577C44.164 93.895 44.0762 93.6163 43.9565 93.3456C43.9565 93.3456 43.9485 93.3297 43.9405 93.3218C43.8607 93.1068 43.3816 93.0431 43.214 93.0431H40.763C40.6353 93.0431 40.2042 93.067 40.3 93.2979C40.3878 93.5208 40.8588 93.5765 41.0265 93.5765H42.8388C43.0703 94.1577 43.2858 94.7707 43.5174 95.3757C43.9006 96.3868 44.2918 97.4138 44.675 98.4328C44.4993 98.7035 44.3317 98.9901 44.2119 99.2847C43.7249 100.431 43.4695 101.649 43.4375 102.883C43.3657 104.189 43.5253 105.494 43.9006 106.736C44.1081 107.413 44.4195 108.042 44.8267 108.615C44.8107 108.679 44.8107 108.743 44.8027 108.782M45.633 101.593C45.5851 103.727 45.3616 105.853 44.9704 107.946C44.8825 107.779 44.8027 107.604 44.7229 107.437C44.2997 106.346 44.0682 105.184 44.0203 104.014C43.9644 102.796 44.1081 101.578 44.4514 100.415C44.5712 99.9853 44.7309 99.5633 44.9384 99.1573C45.0901 99.5474 45.2338 99.9295 45.3855 100.32C45.4653 100.551 45.5532 100.789 45.649 101.02C45.649 101.211 45.633 101.41 45.633 101.593ZM46.8545 90.9334C46.7746 90.6707 46.7028 90.4 46.607 90.1612C46.128 88.6724 45.4973 87.2474 44.6909 85.9019C44.172 85.0183 43.5333 84.2062 42.7909 83.5056C43.5972 81.8099 44.3955 80.1301 45.2418 78.4582C45.5212 77.9089 45.8006 77.3516 46.0721 76.8103C46.0481 76.9775 46.0082 77.1526 45.9843 77.3198C45.5771 79.1986 45.1939 81.0854 44.8107 82.9722C44.7309 83.3942 44.643 83.8241 44.5472 84.2619C44.5233 84.4291 44.7947 84.4291 44.9065 84.4291C45.0342 84.4132 45.4174 84.3654 45.4414 84.2142C45.6889 83.02 45.9364 81.8338 46.1679 80.6555C46.3994 79.5489 46.6309 78.4344 46.8704 77.3278V90.9175H46.8625L46.8545 90.9334ZM47.9163 109.18C47.7806 109.292 47.6369 109.379 47.4852 109.459C47.6528 108.647 47.7965 107.827 47.9083 106.999C48.1079 107.532 48.3155 108.05 48.4991 108.567C48.3394 108.79 48.1398 108.997 47.9243 109.172M49.8722 102.437C49.8962 102.764 49.8962 103.074 49.8962 103.385C49.9122 104.579 49.7285 105.773 49.3373 106.896C49.3054 107.023 49.2495 107.158 49.2016 107.286C49.1697 107.198 49.1378 107.118 49.1138 107.039C48.8024 106.203 48.4751 105.359 48.1718 104.515V104.38C48.2037 104.085 48.2037 103.807 48.2197 103.504C48.6508 102.493 49.0899 101.466 49.5369 100.463C49.7126 101.108 49.8323 101.769 49.8802 102.437M48.1318 97.8119C48.4751 98.1462 48.7625 98.5443 48.9621 98.9742C48.7306 99.4837 48.4991 100.017 48.2596 100.535C48.2436 99.635 48.1957 98.7194 48.1239 97.8039M56.1952 81.3004C55.6842 82.407 55.1972 83.5056 54.7901 84.6441C54.4867 85.48 54.2551 86.292 53.9597 87.128C53.8799 87.3429 53.8081 87.5579 53.7283 87.7887C53.7123 87.8126 53.7122 87.8365 53.7042 87.8684C53.4568 88.553 53.1934 89.2058 52.9299 89.8746C52.5627 90.7742 52.1715 91.6658 51.7963 92.5654C51.7803 92.5893 51.7723 92.6291 51.7484 92.653C51.7324 92.6769 51.7324 92.7008 51.7244 92.7326C51.6765 92.8202 51.6446 92.9237 51.5967 92.9954C50.8223 94.8344 50.0159 96.6336 49.2096 98.4328C48.9701 98.0587 48.6508 97.7402 48.2835 97.4855C48.2197 97.4456 48.1797 97.4218 48.1159 97.3979V73.8567C48.1159 73.7134 48.1159 73.578 48.1318 73.4347H48.1478L52.3631 73.0924H52.4908C52.2433 74.6926 53.0816 76.2689 54.5506 76.9456C55.6842 77.3994 56.8977 77.5905 58.1112 77.5347C57.4326 78.7608 56.8099 80.0346 56.2271 81.3163M70.6454 114.905C70.4138 115.78 70.1504 116.632 69.855 117.484C69.2961 119.116 68.5377 120.66 67.5957 122.101C67.2204 122.675 66.7813 123.216 66.2943 123.702C66.2704 123.71 66.2464 123.726 66.2305 123.749L66.2065 123.773C66.2065 123.773 66.1826 123.805 66.1586 123.805L66.0708 123.893C65.967 123.988 65.8473 124.084 65.7275 124.155C65.5599 124.291 65.3762 124.418 65.1926 124.514H65.1766C65.1766 124.514 65.1527 124.53 65.1527 124.546C65.1367 124.546 65.1208 124.546 65.1048 124.561H65.0888C65.0888 124.561 65.0729 124.577 65.0649 124.577C65.001 124.601 64.9611 124.625 64.8972 124.657C64.8413 124.673 64.8014 124.697 64.7455 124.705C64.7216 124.721 64.6817 124.721 64.6577 124.729C64.6417 124.729 64.6098 124.713 64.5938 124.713H64.5779L64.4422 124.665C64.3144 124.617 64.1946 124.577 64.0828 124.522C64.0349 124.506 63.9951 124.474 63.9472 124.458C63.9312 124.442 63.9232 124.434 63.8993 124.434C63.7715 124.354 63.6517 124.283 63.5399 124.203C63.3004 124.028 63.061 123.837 62.8375 123.63C62.8135 123.614 62.7896 123.582 62.7736 123.566C62.7097 123.511 62.6539 123.455 62.606 123.391C62.5022 123.264 62.3744 123.136 62.2627 123.025C62.0471 122.746 61.8315 122.468 61.624 122.173C60.5781 120.549 59.7638 118.79 59.213 116.935C58.1831 113.495 57.5923 109.953 57.4486 106.37C57.4007 105.455 57.3688 104.523 57.3688 103.592C57.3688 100.614 57.6322 97.6288 58.1591 94.707C58.2629 94.0462 58.4066 93.4014 58.5663 92.7645C58.8138 95.2006 59.189 97.6288 59.6041 100.057C59.652 100.336 59.692 100.598 59.7399 100.877L60.0193 102.374C60.0991 102.764 61.3046 102.78 61.2408 102.509C60.6021 99.1255 60.0512 95.7022 59.7239 92.2629C59.6441 91.3235 59.5722 90.3841 59.5243 89.4367C59.5243 89.4128 59.5403 89.3889 59.5403 89.373C60.0672 87.8047 60.8097 86.3239 61.7357 84.9546C61.9353 84.668 62.1509 84.3973 62.3744 84.1346C62.4782 84.0072 62.59 83.8798 62.7177 83.7684C62.7656 83.7206 62.8055 83.6808 62.8614 83.633C62.8854 83.6091 62.9252 83.5852 62.9412 83.5534C62.9412 83.5534 62.9572 83.5534 62.9572 83.5375C63.1888 83.3464 63.4043 83.1713 63.6598 82.9961C63.7636 82.9324 63.8753 82.8608 63.9791 82.7971C64.027 82.7732 64.0829 82.7493 64.1308 82.7175C64.1548 82.7175 64.1787 82.7095 64.1947 82.6936C64.2985 82.6379 64.4181 82.606 64.5379 82.5662C64.5858 82.5503 64.6258 82.5264 64.6737 82.5184H64.8413C64.8413 82.5184 64.9052 82.5344 64.9292 82.5344C64.9292 82.5344 64.9292 82.5344 64.9451 82.5503C64.9451 82.5503 65.009 82.5662 65.0329 82.5662C65.1687 82.6299 65.2964 82.6777 65.4401 82.7334C65.4401 82.7334 65.4401 82.7334 65.4561 82.7493L65.472 82.7652H65.488C65.488 82.7652 65.5119 82.7812 65.5358 82.7891H65.5519C65.5519 82.7891 65.5758 82.805 65.5758 82.8289C65.7115 82.9006 65.8393 82.9802 65.959 83.0837C66.1985 83.2509 66.4221 83.4419 66.6376 83.641C66.6376 83.6569 66.6535 83.6649 66.6775 83.6649C66.6775 83.6808 66.6935 83.6808 66.6935 83.6887C66.7574 83.7524 66.8213 83.8161 66.8612 83.8559C66.9889 83.9833 67.0927 84.1186 67.2045 84.246C67.42 84.5247 67.6356 84.8033 67.8431 85.0979C68.881 86.706 69.6794 88.4654 70.2302 90.3045C71.2202 93.5606 71.803 96.9282 71.9626 100.336C72.0425 101.426 72.0663 102.517 72.0663 103.592C72.0823 107.405 71.6193 111.211 70.6773 114.905" fill="black"/>
<path d="M59.4799 100.104C59.3203 101.561 58.5059 102.874 57.2525 103.654C57.013 103.774 56.7575 103.853 56.4941 103.901C55.8235 104.044 55.1129 103.981 54.4743 103.734C53.0452 103.105 52.7418 101.354 52.7578 100.136C52.9574 98.6707 52.8376 97.174 52.4225 95.749C52.3027 95.3429 52.183 94.9688 52.0712 94.6025C51.9195 94.1328 51.7838 93.6552 51.688 93.1775C51.6641 93.0501 51.6401 92.9227 51.6162 92.8033V92.7317C51.4725 91.7047 51.5523 90.6618 51.8557 89.6825C52.1191 88.9183 52.7019 88.3053 53.4524 88.0107C53.5003 87.9868 53.5482 87.9629 53.6041 87.947C53.8515 87.8594 54.115 87.7957 54.3864 87.7639C54.5541 87.748 54.7377 87.748 54.9054 87.7639C55.6478 87.8196 56.3504 88.1142 56.9172 88.5998C58.1467 89.6109 59.2245 91.6251 59.6396 95.1519C59.8392 96.8078 59.7753 98.4796 59.464 100.112" fill="black"/>
<path d="M55.7182 93.3996C54.4089 94.0763 52.868 94.0843 51.5508 93.4474C51.3432 93.3519 51.2873 92.6433 51.6545 92.7309C52.7962 93.2404 54.1055 93.2325 55.2312 92.6911C55.4068 92.5956 55.782 92.5398 55.8938 92.8424C55.9976 93.0414 55.9257 93.2961 55.7261 93.3996C55.7261 93.3996 55.7182 93.3996 55.7102 93.4076" fill="white"/>
<path d="M54.8082 87.7411C54.0578 88.3382 53.5788 89.198 53.475 90.1533C53.475 90.3046 53.1317 90.3842 52.9082 90.3683C52.8044 90.3683 52.6367 90.3444 52.6367 90.1613C52.6766 89.3333 53.0439 88.5531 53.6506 87.9879C53.7225 87.9242 53.7943 87.8684 53.8742 87.8286C53.9779 87.757 54.0977 87.6933 54.2175 87.6455C54.3771 87.5659 54.5687 87.558 54.7444 87.6057C54.7843 87.6217 54.8801 87.6853 54.8162 87.7411" fill="white"/>
<path d="M52.3576 67.5174C52.9564 66.6895 53.2278 65.6625 53.0921 64.6434C53.0362 64.2931 52.9644 63.9508 52.8686 63.6085C52.7807 63.3856 52.7648 63.1308 52.8047 62.8999C52.8286 62.8203 52.4614 62.7089 52.4375 62.8044C52.3896 63.0273 52.3975 63.2661 52.4854 63.4891C52.5652 63.8234 52.653 64.1578 52.7089 64.5001C52.8606 65.5351 52.6051 66.586 51.9904 67.4219C51.9584 67.4776 52.3017 67.6129 52.3576 67.5174Z" fill="black"/>
<path d="M70.3016 125.722C70.3016 126.057 60.8252 126.327 49.1293 126.327C37.4335 126.327 27.957 126.057 27.957 125.722C27.957 125.388 37.4335 125.117 49.1293 125.117C60.8252 125.117 70.3016 125.388 70.3016 125.722Z" fill="black"/>
<path d="M44.0204 120.699C44.0204 121.089 34.5439 121.399 22.8481 121.399C11.1522 121.399 1.67578 121.081 1.67578 120.699C1.67578 120.316 11.1522 119.998 22.8481 119.998C34.5439 119.998 44.0204 120.316 44.0204 120.699Z" fill="black"/>
<path d="M97.8725 94.0867C98.3276 91.2844 98.6789 88.9677 98.8146 87.6779C99.4054 82.1688 100.22 71.8432 100.22 71.8432C102.248 79.876 103.517 73.8494 104.299 69.2956C105.09 64.7418 105.633 58.3331 105.92 53.8429C106.072 51.4466 105.92 48.6682 105.936 45.7703C105.936 44.4886 105.88 41.7818 105.88 41.734C105.8 40.4921 105.736 38.2072 105.537 36.9732C104.659 31.5039 103.237 27.8895 101.026 24.705C98.5192 21.0827 96.0842 21.2021 94.0644 20.6369C92.0446 20.0716 90.7991 16.0672 90.7991 16.0672C91.0307 15.8681 92.4118 14.9446 92.4118 14.9367C93.8249 13.2887 94.3199 11.0516 93.7371 8.94988C92.5795 5.04092 89.7613 3.56014 87.8373 3.63975C84.6598 3.77509 83.135 5.33548 82.4244 6.90383C82.3047 7.15859 82.2009 7.42927 82.1211 7.69995C81.9135 8.36871 81.8177 9.06134 81.8097 9.76192C81.8097 10.16 82.9114 9.99279 82.9114 9.99279C83.2308 11.7204 83.7816 13.4081 84.5321 14.9924C84.9552 15.4621 85.3384 15.9557 85.6817 16.4891C86.0569 17.0384 86.1048 17.747 85.7775 18.3361C85.1787 19.7293 83.9812 20.7961 82.5282 21.226C78.9679 22.6829 75.519 24.3786 72.1819 26.2973C69.1402 28.2478 62.0269 35.787 60.039 37.7932C58.0511 39.7994 56.0392 45.7544 55.4963 49.0583C54.9455 52.3622 53.8438 61.6767 53.8438 64.3199C53.8438 66.963 56.4144 67.162 57.0531 67.3053C57.6758 67.4884 58.3065 67.568 58.9452 67.5601C58.9931 67.5601 58.9612 67.5043 58.9452 67.4247C58.6339 66.0395 58.2906 64.71 58.2906 64.71L60.6776 64.8373C60.6936 64.4313 60.3423 63.8183 60.3343 63.5317C60.3104 62.3375 59.9192 62.1703 59.9192 62.1703C56.2149 61.7404 58.3944 55.5546 61.1008 48.7956C63.8072 42.0365 66.0186 41.2086 69.0364 38.8043C71.4235 37.013 73.9303 35.3889 76.5409 33.932C78.8561 38.0878 78.928 45.8659 78.7124 51.5342C78.4969 57.2026 77.1397 60.6736 76.98 66.2067C76.8203 71.7397 78.9759 83.3073 78.9918 83.3471C79.2952 86.635 79.6944 92.9244 80.0613 97.7329C80.2529 100.193 79.9336 102.677 80.0613 103.712C79.9336 106.188 80.0294 108.664 80.3088 111.132C80.7559 114.571 81.3307 119.539 81.3307 119.539C80.7639 120.558 80.676 121.776 81.0832 122.858C81.1072 122.946 81.1391 123.049 81.171 123.129C81.4345 123.941 82.0412 124.578 82.8316 124.873C84.3165 125.334 85.8813 125.509 87.4381 125.414C90.5117 125.414 93.6014 125.263 96.659 124.944C97.1221 124.896 97.5931 124.809 98.0482 124.681C99.2617 124.268 98.1839 123.758 98.1839 123.758C98.1839 123.758 98.8465 123.838 99.7806 123.885C101.01 123.973 102.24 123.941 103.461 123.798C103.908 123.742 104.347 123.615 104.77 123.44C106.583 122.564 105.257 122.022 104.435 121.704C103.621 121.378 99.9403 120.048 97.9045 119.228C95.8687 118.4 93.8009 117.413 93.8009 117.413C93.8009 117.413 96.3237 103.56 97.8007 94.429C97.8167 94.3335 97.8246 94.23 97.8486 94.1424M85.4342 110.67C85.4342 109.929 85.8973 107.645 85.9691 105.909C86.2485 99.962 87.494 91.364 87.2145 81.6752C87.2145 81.4045 87.3183 81.0941 87.502 81.0941C87.5499 80.29 87.5738 79.7407 87.6057 79.048C88.0129 70.3465 88.9869 68.3084 90.2802 66.4694C91.0067 65.3946 92.1643 64.694 93.4497 64.5348L93.4337 64.5507L93.4098 64.5667C93.2661 64.6542 93.1383 64.7657 93.0265 64.8931C93.0186 64.901 93.0106 64.909 92.9866 64.9169C92.3799 65.5618 91.8849 66.3181 91.5416 67.1461C91.3021 67.8387 91.5416 78.6579 91.5416 82.6465C91.5416 83.4028 91.7093 84.597 91.6454 86.1096C91.3979 92.5343 90.7273 103.752 90.4239 110.391C90.2164 114.865 89.7214 117.389 89.7852 118.09C89.8331 118.623 89.5936 118.528 89.6176 118.504C89.4659 119.3 89.3861 120.088 89.3781 120.9C87.965 120.303 86.5998 119.594 85.3065 118.766C85.3065 118.766 85.4342 113.663 85.4342 110.654" fill="white"/>
<path d="M111.258 124.608C111.258 125.531 101.869 126.287 90.293 126.287C78.7167 126.287 69.3281 125.531 69.3281 124.608C69.3281 123.684 78.7167 122.928 90.293 122.928C101.869 122.928 111.258 123.684 111.258 124.608Z" fill="black"/>
<path d="M90.6376 9.57073C90.5497 9.50699 90.4219 9.53089 90.358 9.62649C90.342 9.66632 90.326 9.69819 90.326 9.73802C90.2861 10.1523 90.334 10.5745 90.4778 10.9728C90.6536 11.156 91.5563 10.7497 91.5802 10.4948C91.6042 10.2718 91.045 9.86548 90.6296 9.57869" fill="black"/>
<path d="M66.4569 101.587C66.417 101.682 66.2653 101.714 66.1855 101.722C65.2275 101.833 64.2694 101.945 63.3034 102.008C62.7047 102.048 62.0899 102.048 61.4912 102.048C61.1319 102.056 60.7727 101.953 60.4853 101.746C60.4214 101.69 60.3096 101.579 60.3416 101.475C60.3815 101.38 60.5332 101.34 60.613 101.34C61.2118 101.34 61.8265 101.34 62.4253 101.3C63.3913 101.236 64.3493 101.117 65.3153 101.013C65.6746 100.997 66.0338 101.101 66.3212 101.332C66.3851 101.387 66.4968 101.491 66.4649 101.594" fill="black"/>
<path d="M59.853 61.9379L59.8047 61.9219C59.8047 61.9219 59.8288 61.9299 59.8368 61.9379H59.845" fill="black"/>
<path d="M101.336 32.4578L99.4915 32.617L99.3398 31.7413L101.184 31.582L101.336 32.4578Z" fill="white"/>
<path d="M101.142 31.2152L99.2981 31.3745L99.2422 31.0401L101.086 30.8809L101.142 31.2152Z" fill="white"/>
<path d="M73.465 59.5161C73.5049 59.747 73.5927 59.9779 73.7284 60.1769C73.9041 60.5033 74.1036 60.8059 74.2553 61.1402C74.7423 62.1752 74.894 63.3375 74.6944 64.46C74.6785 64.5556 75.0617 64.5874 75.0776 64.468C75.2692 63.3614 75.1255 62.2229 74.6625 61.2039C74.5108 60.8695 74.3192 60.5431 74.1356 60.2247C73.9919 60.0177 73.8961 59.7709 73.8482 59.5241C73.8482 59.4047 73.457 59.4126 73.465 59.5241" fill="black"/>
<path d="M66.0725 121.432C66.0725 121.432 66.0161 121.464 66 121.488C66 121.488 66.0242 121.448 66.0725 121.432Z" fill="black"/>
<path d="M105.439 121.853C104.976 121.638 104.489 121.463 104.002 121.288C103.3 121.025 102.605 120.786 101.903 120.524C101.168 120.261 100.434 119.99 99.7072 119.712C99.5476 119.648 99.3879 119.584 99.2282 119.521C99.1564 119.497 99.0765 119.465 99.0047 119.441C98.9728 119.425 98.9328 119.417 98.9009 119.393C98.9009 119.393 98.853 119.377 98.8291 119.369C98.5416 119.25 98.2542 119.131 97.9668 118.995C96.7374 118.43 95.5638 117.769 94.3583 117.164L94.3822 117.18C94.3822 117.18 94.3583 117.164 94.3423 117.156C94.5179 116.129 94.6936 115.102 94.8692 114.083C95.3243 111.464 95.7714 108.837 96.2344 106.217C96.6815 103.646 97.1286 101.059 97.5996 98.4952C97.9588 96.4571 98.2622 94.435 98.4778 92.381C98.7891 89.3239 99.0606 86.2509 99.3719 83.1779C99.4118 82.8196 99.4438 82.4454 99.4757 82.0872H99.5635C99.8988 78.9743 100.194 76.1401 100.394 73.9587C100.458 74.11 100.522 74.2772 100.585 74.4205C100.881 75.0972 101.328 75.9649 102.19 75.8933C102.725 75.8455 102.949 75.2882 103.14 74.8504C103.475 74.0065 103.739 73.1387 103.939 72.2471C104.242 71.0211 104.489 69.7791 104.713 68.5451C105.224 65.7189 105.615 62.8768 105.894 60.0028C106.014 58.7768 106.11 57.5428 106.158 56.3088C106.206 55.1942 106.182 54.0797 106.206 52.9571C106.238 50.5529 106.278 48.1406 106.254 45.7284C106.254 45.0676 106.238 44.3909 106.214 43.7222C106.198 43.0932 106.182 42.4643 106.142 41.8354V41.7C106.054 39.853 105.91 37.9981 105.647 36.175C105.663 36.1352 105.655 36.0954 105.631 36.0635C105.535 35.347 105.407 34.6305 105.264 33.922C104.968 32.4651 104.529 31.04 103.954 29.6627C103.276 27.959 102.414 26.335 101.4 24.8144C100.17 22.7286 98.1105 21.2796 95.7394 20.8099C95.1407 20.794 94.5579 20.6587 94.007 20.4119C93.4961 20.1253 93.041 19.7272 92.6817 19.2575C92.083 18.4614 91.6359 17.5777 91.3565 16.6223C91.3086 16.4631 91.2607 16.3039 91.2208 16.1447C91.2208 16.1287 91.2048 16.1049 91.1808 16.0969C92.8973 15.253 94.0629 13.5732 94.2385 11.6625C94.2625 11.0256 94.2066 10.3808 94.0469 9.7598C93.9431 9.21844 93.7994 8.68504 93.6158 8.17553C93.52 7.88096 93.4003 7.60232 93.2725 7.30776C93.4482 7.29183 93.544 7.21222 93.4881 7.03708C93.1687 5.92251 91.1569 0.516874 85.7041 1.87027C84.3948 2.14891 83.2372 2.8893 82.4309 3.9561C82.2153 4.25067 82.0237 4.57707 81.8641 4.91144V4.92737C81.4729 5.81902 81.2573 6.77436 81.2174 7.74562C81.2014 8.09591 81.2094 8.4462 81.2174 8.7965C81.2334 9.25028 81.2972 9.68815 81.393 10.1181C81.4888 10.5241 81.6246 10.7231 81.8162 10.7629C82.0237 10.8107 82.3111 10.6515 82.6784 10.3887C82.7742 10.8425 82.8939 11.2883 83.0137 11.7421C83.0297 11.8217 83.0616 11.9014 83.0776 11.9889C83.2372 12.6895 83.4608 13.3742 83.7402 14.0429C84.0196 14.6878 84.4028 15.2849 84.8818 15.7944C85.0255 15.9456 85.1772 16.081 85.3369 16.2084C85.313 16.2243 85.297 16.2641 85.313 16.2959C85.4167 16.6383 85.4646 17.0045 85.4487 17.3707C85.4247 18.2146 85.0814 19.0186 84.5066 19.6317C83.9957 20.1412 83.3889 20.5552 82.7103 20.8258C82.6225 20.8736 82.6225 20.9214 82.6624 20.9771C82.5666 20.9532 82.4549 20.9532 82.3591 20.9771C79.7963 22.0678 77.2336 23.1744 74.7268 24.4163C73.8406 24.8303 72.9784 25.3 72.1561 25.8334C71.4536 26.3111 70.7909 26.8445 70.1363 27.3938C68.5156 28.7552 66.9509 30.2041 65.426 31.6769C64.0528 32.9905 62.7116 34.336 61.3704 35.6734C60.8834 36.1591 60.3804 36.6288 59.9333 37.1622C59.2308 38.014 58.6241 38.9375 58.1131 39.9008C56.7719 42.3847 55.7979 45.0517 55.2311 47.8142C54.9916 49.0004 54.8638 50.2105 54.7041 51.4047C54.5604 52.5511 54.4088 53.6896 54.273 54.836C54.0016 57.0094 53.7461 59.1748 53.6024 61.3562L53.5545 61.9931C53.4986 62.7494 53.4906 63.4977 53.5226 64.2541C53.4986 64.7954 53.6184 65.3368 53.8739 65.8224C54.4487 66.531 55.255 67.0325 56.1492 67.2236C56.8757 67.4465 57.6181 67.5977 58.3766 67.6614C58.5123 67.6694 58.648 67.6853 58.7837 67.6853C58.8795 67.6853 59.0152 67.6853 59.0312 67.5977C59.0312 67.5579 59.0312 67.5261 59.0152 67.5022C58.8715 67.351 58.664 67.2554 58.4484 67.2475C58.3127 67.2475 58.177 67.2315 58.0413 67.2236C57.9055 67.2156 57.8975 67.1997 57.7538 67.1758C57.7219 67.1758 57.682 67.1758 57.6501 67.1599C57.6421 67.1599 57.5782 67.1599 57.5622 67.1519C57.4664 67.136 57.3706 67.128 57.2748 67.1042C56.8836 67.0405 56.4925 66.9529 56.1172 66.8255C55.766 66.73 55.4386 66.5628 55.1273 66.3638C54.6882 66.0294 54.4167 65.5199 54.4088 64.9626C54.3449 64.2222 54.3369 63.4739 54.3848 62.7414C54.4726 60.5521 54.7281 58.3628 54.9836 56.1973C55.247 53.9762 55.5105 51.763 55.8139 49.5418C56.229 46.7395 57.0593 44.0247 58.2887 41.4771C58.7917 40.3944 59.3825 39.3515 60.0531 38.3723C60.5082 37.7274 61.0271 37.1303 61.6019 36.573C62.8154 35.355 64.0129 34.1449 65.2424 32.9427C66.1685 32.0431 67.1025 31.1515 68.0526 30.2678C69.298 30.7216 70.3279 31.6212 70.9586 32.7915C71.4536 33.7309 71.749 34.7659 71.8288 35.8167C71.8448 35.976 71.8527 36.1511 71.8527 36.3103C71.6212 36.4695 71.3737 36.6367 71.1422 36.8039C69.9287 37.6398 68.7472 38.4996 67.5816 39.3913C66.7114 40.0282 65.8891 40.7129 65.0987 41.4532C64.3163 42.2732 63.6377 43.1888 63.0709 44.168C62.1847 45.601 61.3784 47.0738 60.6519 48.5944C59.8535 50.2265 59.1749 51.8983 58.6001 53.6179C58.0013 55.2659 57.666 57.0014 57.6022 58.7608C57.5143 59.7958 57.8097 60.8228 58.4484 61.6348C58.7518 61.9533 59.151 62.1682 59.5821 62.2478L59.598 62.2717C59.598 62.2717 59.6459 62.3513 59.6699 62.3911C59.8136 62.7096 59.8775 63.0599 59.8615 63.4022C59.8615 63.6172 60.4682 63.6808 60.6758 63.5614C60.7157 63.5455 60.7397 63.5057 60.7477 63.4659C60.7477 62.9643 60.6678 62.0727 60.0292 61.9612H59.8615C59.8615 61.9612 59.8136 61.9533 59.7976 61.9453H59.7817C59.7817 61.9453 59.7577 61.9453 59.7497 61.9294C59.7098 61.9135 59.6779 61.9055 59.6539 61.8816L59.5901 61.8418C59.5901 61.8418 59.5661 61.8259 59.5422 61.8179C59.4863 61.7781 59.4384 61.7383 59.3825 61.6985C59.2627 61.6109 59.1669 61.4915 59.0871 61.3721C58.9673 61.2049 58.8715 61.0218 58.7997 60.8307C58.5921 60.2814 58.4963 59.7082 58.4963 59.1271C58.4963 58.1797 58.5841 57.2403 58.7917 56.3168C59.1669 54.5812 59.7178 52.8775 60.4124 51.2455C61.1229 49.5259 61.9292 47.854 62.8314 46.2299C63.5339 44.9243 64.3163 43.6824 65.2105 42.4962C65.8172 41.7558 66.5118 41.0791 67.2702 40.5059C68.3719 39.6142 69.5136 38.7703 70.6712 37.9424C71.9166 37.0507 73.17 36.1909 74.4633 35.355C75.118 34.941 75.7726 34.527 76.4433 34.1608C80.451 47.4878 77.6488 56.6909 76.9542 63.4898C76.2676 70.3205 77.545 75.9649 78.1358 80.7099C78.1358 80.7099 78.2156 80.7338 78.3593 80.7736C78.4551 81.5856 78.5509 82.3817 78.6387 83.2017V83.3132C78.7665 84.4835 78.8782 85.6538 78.99 86.8241C79.2375 89.4672 79.4451 92.1262 79.5968 94.7852C79.6526 95.7724 79.7005 96.7596 79.7405 97.7468C79.7884 98.9808 79.7963 100.215 79.7405 101.449C79.6686 102.953 79.5648 104.458 79.5888 105.971C79.6127 107.356 79.7165 108.749 79.8921 110.126C80.2354 112.865 80.7464 115.564 80.9859 118.318C81.0178 118.685 81.0498 119.059 81.0737 119.425C81.0338 119.433 81.0019 119.457 80.9779 119.489C80.9699 119.497 80.9619 119.513 80.954 119.537C80.6825 120.15 80.5228 120.802 80.4749 121.471C80.4191 122.02 80.4909 122.578 80.6825 123.103C80.906 123.692 81.3292 124.162 81.8641 124.472C82.1515 124.632 82.4628 124.759 82.7822 124.847C83.2851 124.982 83.7961 125.07 84.315 125.117C85.1852 125.205 86.0634 125.253 86.9256 125.269C88.8177 125.316 90.7098 125.253 92.6019 125.157C93.9352 125.093 95.2684 125.006 96.5937 124.91C96.7214 124.902 96.8412 124.894 96.9689 124.886C97.1765 124.871 97.384 124.863 97.5916 124.855H97.863C98.2143 124.855 99.0127 124.775 99.0686 124.297C99.0686 124.138 98.9967 123.995 98.869 123.891C99.1564 123.883 99.4358 123.875 99.7232 123.867H100.154C101.232 123.82 102.318 123.796 103.404 123.78C103.667 123.78 103.923 123.78 104.186 123.772C104.705 123.82 105.232 123.724 105.711 123.509C105.839 123.438 105.942 123.334 106.03 123.223C106.445 122.657 105.855 122.116 105.36 121.893M59.8296 61.9851H59.8695C59.7976 61.9851 59.7417 61.9851 59.8296 61.9851ZM105.431 40.482C105.631 43.6983 105.647 46.9146 105.599 50.1309C105.575 52.4954 105.607 54.8837 105.463 57.2482C105.312 59.9391 104.976 62.6141 104.593 65.281C104.25 67.8286 103.763 70.3523 103.132 72.8442C102.957 73.6244 102.693 74.3886 102.35 75.1211C102.27 75.3201 102.142 75.4873 101.983 75.6306C101.959 75.6306 101.935 75.6465 101.919 75.6704C101.919 75.6704 101.943 75.6704 101.951 75.6863C101.951 75.6863 101.935 75.6863 101.919 75.6704C101.879 75.6704 101.863 75.7181 101.919 75.6704C101.903 75.6704 101.895 75.6624 101.879 75.6465C101.823 75.5987 101.775 75.5589 101.719 75.5032C101.448 75.1768 101.232 74.8106 101.088 74.4046C100.889 73.9189 100.713 73.4174 100.569 72.8999C100.546 72.8044 100.514 72.7009 100.49 72.6053C101.264 64.6919 102.166 56.3725 102.166 53.4826C102.166 50.5927 102.03 47.7824 102.094 37.2895C102.869 37.1781 103.627 37.0029 104.362 36.7561C104.593 36.6765 104.825 36.5969 105.064 36.4934C105.232 37.807 105.352 39.1286 105.431 40.4422M103.42 36.5332C103.42 36.5332 103.436 36.589 103.444 36.6208C103.148 36.7004 102.853 36.7721 102.549 36.8278C102.493 36.4934 102.446 36.1591 102.39 35.8247C102.39 35.7769 102.374 35.7371 102.374 35.6894C102.645 35.6416 102.909 35.5938 103.18 35.5301C103.26 35.8645 103.348 36.1909 103.428 36.5173M103.26 35.5142C103.563 35.4426 103.867 35.3629 104.178 35.2594C104.298 35.5779 104.402 35.8884 104.521 36.1989L104.537 36.2387C104.481 36.2626 104.433 36.2864 104.378 36.3024C104.234 36.3581 104.09 36.4138 103.946 36.4536C103.803 36.5014 103.675 36.5332 103.539 36.581C103.459 36.2466 103.38 35.9202 103.3 35.5938C103.3 35.5699 103.292 35.5381 103.284 35.5142M102.501 36.7561C102.501 36.7561 102.501 36.8119 102.509 36.8278C102.382 36.8517 102.246 36.8756 102.126 36.8915C102.126 36.4934 102.126 36.1113 102.118 35.7292L102.326 35.6894C102.39 36.0396 102.446 36.3899 102.501 36.7402M105.04 36.0078C104.984 36.0237 104.936 36.0476 104.889 36.0715C104.809 36.1193 104.729 36.1511 104.657 36.1829L104.625 36.1989C104.521 35.8963 104.41 35.5938 104.306 35.2993C104.298 35.2754 104.29 35.2515 104.282 35.2276H104.29C104.489 35.1639 104.697 35.0843 104.889 35.0047C104.944 35.3391 104.992 35.6814 105.048 36.0158L105.04 36.0078ZM99.2362 22.8878C100.274 23.9387 101.144 25.1488 101.839 26.4623C102.709 27.9989 103.428 29.6309 104.002 31.3027C104.37 32.4492 104.657 33.6194 104.857 34.7977C104.609 34.9171 104.346 35.0127 104.082 35.1002C103.444 35.3152 102.781 35.4664 102.118 35.5699C101.943 28.381 100.17 24.4243 99.0686 22.7206C99.1324 22.7763 99.1883 22.8321 99.2442 22.8798M94.015 20.7064C94.1188 20.7542 94.2305 20.786 94.3503 20.8179C94.1028 21.0965 93.8394 21.3592 93.5599 21.622C93.4402 21.5344 93.3284 21.4388 93.2087 21.3513C93.4801 21.1522 93.7435 20.9293 94.015 20.7144M89.9194 23.1505C89.9194 23.1505 89.9035 23.1027 89.8955 23.0788C89.9514 23.0629 89.9993 23.055 90.0552 23.0311C90.2787 22.9594 90.5022 22.8798 90.7178 22.7843C90.8056 22.9515 90.9094 23.1187 90.9972 23.2779C91.0132 23.3018 91.0212 23.3256 91.0451 23.3495C90.9892 23.3734 90.9413 23.4053 90.8775 23.4291C90.63 23.5406 90.3665 23.6282 90.0951 23.7078L89.9035 23.1425M88.8816 23.3575C88.8816 23.3575 88.8816 23.3097 88.8656 23.2858C89.177 23.2381 89.4963 23.1664 89.8077 23.0868C89.8715 23.2699 89.9354 23.4451 89.9833 23.6282C89.9833 23.6521 89.9993 23.6839 90.0073 23.7078C90.0073 23.7078 90.0232 23.7157 90.0312 23.7157C89.6879 23.8113 89.3287 23.8829 88.9854 23.9227C88.9934 23.9227 89.0013 23.9227 89.0013 23.9068C88.9534 23.7157 88.9215 23.5247 88.8736 23.3495M88.9534 23.9227C88.5622 23.9705 88.1631 23.9785 87.7719 23.9466C87.7878 23.7555 87.8038 23.5804 87.8278 23.3893V23.3416C88.1471 23.3416 88.4664 23.3256 88.7858 23.2779C88.8337 23.461 88.8656 23.6361 88.9135 23.8272C88.9135 23.8511 88.9215 23.8829 88.9295 23.9068C88.9295 23.9068 88.9455 23.9148 88.9534 23.9148V23.9227ZM90.7896 22.7922L90.7657 22.7445C91.0371 22.633 91.2926 22.5136 91.5561 22.3783C91.6758 22.5136 91.7876 22.6489 91.8994 22.7922C91.9153 22.8082 91.9313 22.8321 91.9473 22.848C91.6678 23.0152 91.3804 23.1744 91.085 23.3097C90.9892 23.1425 90.8854 22.9674 90.7896 22.8002M91.6199 22.3783L91.604 22.3544C91.8355 22.227 92.067 22.0917 92.3065 21.9484C92.4263 22.0678 92.546 22.1792 92.6738 22.3066L92.6977 22.3305C92.4662 22.4977 92.2347 22.6649 91.9952 22.8161L91.6279 22.3783M92.3624 21.9165C92.6259 21.7493 92.8893 21.5662 93.1448 21.3831C93.2645 21.4707 93.3763 21.5662 93.504 21.6538C93.2645 21.8767 93.0171 22.0837 92.7616 22.2907C92.6259 22.1633 92.4981 22.0359 92.3784 21.9086M83.4288 21.1124C84.5625 20.6985 85.4806 19.8705 86.0315 18.7878C86.3029 18.1429 86.3907 17.4344 86.263 16.7418C86.247 16.5984 86.2071 16.4631 86.1672 16.3278C86.1353 16.2322 85.9516 16.1447 85.76 16.1208C85.7441 16.1128 85.7361 16.0969 85.7121 16.081C85.3369 15.7546 85.0016 15.3804 84.7461 14.9584L84.6823 14.8629C84.299 14.2021 84.0037 13.5016 83.8041 12.7691C83.5646 11.8536 83.3091 10.9221 83.1335 9.99863C84.8898 8.41436 87.0693 7.39533 89.4085 7.07688C90.5102 6.99727 91.6359 7.06096 92.7137 7.25999C92.7456 7.3396 92.7855 7.41921 92.8095 7.49086C92.9851 7.94465 93.1448 8.4064 93.2645 8.88407L93.2885 8.9796C93.4322 9.52096 93.536 10.0782 93.5998 10.6355C93.7196 11.9173 93.3524 13.1831 92.57 14.1942C92.2267 14.632 91.8275 15.0221 91.3804 15.3485C90.8615 15.7227 90.2947 16.0173 89.6959 16.2243C89.4165 16.3118 89.1371 16.3835 88.8656 16.4392C88.7299 16.4631 88.8656 16.5984 88.9135 16.6303C89.0333 16.7099 89.177 16.7418 89.3207 16.7179C89.7757 16.6303 90.2228 16.495 90.6459 16.3118C91.0052 17.912 91.9233 19.3371 93.2166 20.3163C93.2965 20.372 93.3763 20.4039 93.4561 20.4517C91.7716 22.0917 89.5362 23.0152 87.1971 23.0629C86.7899 23.047 86.3987 22.9833 86.0155 22.8798C85.8399 22.8321 85.7121 22.7922 85.5205 22.7286C85.4407 22.7047 85.3609 22.6649 85.281 22.641C85.2172 22.6171 85.1772 22.5932 85.0814 22.5614C84.802 22.442 84.5306 22.2987 84.2751 22.1394C84.0675 22.0121 83.8839 21.8767 83.6923 21.7334C83.5406 21.606 83.3889 21.4787 83.2532 21.3433C83.2133 21.3035 83.1734 21.2637 83.1335 21.2239C83.1335 21.2239 83.0776 21.1602 83.0456 21.1443C83.1734 21.1682 83.2931 21.1682 83.4129 21.1284M84.0116 22.2907C84.2192 22.4181 84.4427 22.5216 84.6503 22.633C84.5865 22.7286 84.5226 22.8321 84.4587 22.9276C84.2272 22.8002 84.0037 22.6649 83.7881 22.5216C83.86 22.442 83.9318 22.3703 84.0037 22.2907M83.7402 22.4897C83.5646 22.3703 83.3889 22.2429 83.2293 22.1315C83.1814 22.0917 83.1335 22.0519 83.0856 22.0121C83.1574 21.9484 83.2293 21.8847 83.3011 21.813C83.5167 21.9722 83.7322 22.1315 83.9637 22.2668C83.8919 22.3464 83.82 22.4181 83.7482 22.4977M84.7142 22.6649C84.9856 22.7922 85.273 22.8957 85.5445 22.9992C85.4886 23.1346 85.4247 23.262 85.3848 23.3893C85.0894 23.262 84.802 23.1266 84.5226 22.9754C84.5865 22.8798 84.6503 22.7763 84.7142 22.6728V22.6649ZM85.6163 23.0152C85.9277 23.1107 86.263 23.1983 86.5823 23.262C86.5504 23.4132 86.5025 23.5645 86.4626 23.7237C86.4626 23.7317 86.4546 23.7476 86.4546 23.7635C86.1113 23.6759 85.776 23.5565 85.4407 23.4132C85.4966 23.2858 85.5445 23.1505 85.6004 23.0231M86.6382 23.2779C86.9975 23.3336 87.3647 23.3654 87.724 23.3654C87.708 23.5486 87.6841 23.7237 87.6761 23.9068V23.9705H87.6282C87.2529 23.9307 86.8857 23.875 86.5264 23.7794C86.5743 23.6202 86.6143 23.4451 86.6542 23.2858M83.2532 21.7971C83.1814 21.8608 83.1095 21.9245 83.0377 21.9961C82.8939 21.8767 82.7502 21.7653 82.6145 21.6379C82.7023 21.5821 82.7902 21.5264 82.878 21.4866C82.9977 21.5981 83.1175 21.7016 83.2452 21.8051M82.8301 21.4468C82.7423 21.5105 82.6544 21.5583 82.5666 21.606C82.5507 21.5901 82.5427 21.5821 82.5187 21.5583C82.6145 21.5105 82.7183 21.4787 82.8221 21.4309M80.8821 22.2588C81.3451 22.0598 81.8162 21.8528 82.2792 21.6538C82.9818 22.3146 83.7801 22.848 84.6344 23.254C86.4945 24.2014 88.6421 24.3447 90.606 23.668C92.1149 23.0709 93.4482 22.1235 94.5179 20.8895C94.6457 20.9134 94.7654 20.9453 94.8852 20.9612C95.0049 20.9771 95.1167 20.9851 95.2365 21.001C97.7034 24.7825 104.418 47.9973 89.6241 43.8336C84.0037 42.2494 83.0137 31.86 82.3271 29.2886C81.7204 27.0117 80.7544 24.8542 79.493 22.8639C79.948 22.6649 80.4191 22.4579 80.8741 22.2588M68.2442 30.0369L68.9467 29.3921C69.0505 29.4159 69.1623 29.4558 69.2661 29.4876C69.0346 29.7105 68.811 29.9414 68.5875 30.1643C68.4677 30.1165 68.3639 30.0767 68.2442 30.0369ZM68.6913 30.2041C68.9148 29.9891 69.1304 29.7742 69.3459 29.5592L69.3779 29.5194C69.6413 29.607 69.8888 29.7185 70.1363 29.8538L69.4098 30.5624C69.1783 30.427 68.9228 30.2996 68.6753 30.1961M69.4976 30.6181L70.1682 29.9493C70.1682 29.9493 70.2002 29.9095 70.2241 29.8936C70.4876 30.029 70.7271 30.1882 70.9586 30.3713C70.7111 30.626 70.4556 30.8728 70.2002 31.1276C69.9766 30.9365 69.7451 30.7693 69.4976 30.6181ZM70.8867 31.8123L70.8628 31.8282C70.6871 31.6053 70.4955 31.3903 70.28 31.1992C70.5115 30.9684 70.743 30.7375 70.9825 30.5066C70.9985 30.4907 71.0304 30.4589 71.0464 30.4429C71.2939 30.642 71.5414 30.8649 71.749 31.1196C71.4616 31.3505 71.1821 31.5814 70.8947 31.8123M71.3578 32.5526C71.222 32.3297 71.0783 32.1148 70.9267 31.9078L71.749 31.2311C71.749 31.2311 71.7809 31.1913 71.8128 31.1833C71.9485 31.3425 72.0843 31.5177 72.196 31.6849C72.2439 31.7565 72.2839 31.8202 72.3318 31.8839C72.3238 31.8839 72.3078 31.8839 72.2998 31.8998C71.9964 32.1068 71.7011 32.3138 71.3977 32.5208L71.3737 32.5367M71.7569 33.309C71.6611 33.0622 71.5414 32.8393 71.4057 32.6084C71.7011 32.4093 71.9964 32.2024 72.2918 31.9954C72.3158 31.9794 72.3477 31.9556 72.3717 31.9396C72.5393 32.2262 72.707 32.5128 72.8347 32.8233H72.8108C72.4755 32.9826 72.1401 33.1259 71.8048 33.2851C71.7889 33.293 71.7649 33.301 71.749 33.309M71.7729 33.3806C72.1082 33.2373 72.4355 33.086 72.7708 32.9268L72.8587 32.887C72.9784 33.1497 73.0662 33.4125 73.1541 33.6672H73.1381L72.1401 34.121L72.0603 34.1608C71.9805 33.8901 71.8927 33.6274 71.7809 33.3647M72.1641 34.5589C72.1401 34.4474 72.1002 34.336 72.0763 34.2245H72.1002L73.1062 33.7627C73.1062 33.7627 73.1541 33.7389 73.178 33.7229C73.2738 34.0494 73.3536 34.3678 73.4175 34.7022C73.4175 34.7499 73.4335 34.7897 73.4415 34.8375H73.3936L72.3956 35.2993C72.3956 35.2993 72.3318 35.3231 72.3078 35.347C72.2759 35.0763 72.22 34.8057 72.1561 34.5429M72.3637 35.8565C72.3557 35.7132 72.3397 35.554 72.3158 35.4187C72.3318 35.4187 72.3397 35.4187 72.3637 35.4107L73.3616 34.9569C73.3616 34.9569 73.4255 34.933 73.4494 34.9092C73.4574 34.9808 73.4654 35.0445 73.4814 35.1161C73.1062 35.3629 72.7309 35.6018 72.3637 35.8565ZM76.8584 33.8026C77.0181 33.7229 77.1777 33.6433 77.3454 33.5717C77.3454 33.5717 77.3773 33.5558 77.4093 33.5478L77.5131 33.5C77.5849 33.4761 77.6568 33.4443 77.7286 33.4284C77.8883 33.3806 77.8883 33.2453 77.7446 33.1736C77.545 33.086 77.3214 33.0781 77.1139 33.1259C76.7466 33.2532 76.3874 33.4045 76.0521 33.5956C75.5571 33.8503 75.0861 34.129 74.615 34.4156C74.3276 34.5827 74.0402 34.7659 73.7528 34.949C73.673 34.4474 73.5452 33.9379 73.3696 33.4602C72.9465 32.1466 72.1401 31.0002 71.0544 30.1563C70.4556 29.7185 69.7611 29.4 69.0425 29.2328C69.306 29.002 69.5535 28.7711 69.8169 28.5482C70.5195 27.9352 71.23 27.3301 71.9805 26.7569C72.5313 26.319 73.1141 25.9289 73.7209 25.5866C74.5911 25.1169 75.4773 24.679 76.3714 24.2491C77.6967 26.8923 78.4631 29.7981 78.6068 32.7596C78.6786 34.6226 77.521 35.3231 76.8584 33.8185M84.9936 117.323C84.9936 117.522 84.9936 117.737 85.0096 117.944C84.7381 117.92 84.4747 117.928 84.2112 117.976C83.7881 118.032 83.4049 118.247 83.1255 118.565C82.8061 118.892 82.383 119.107 81.9359 119.186C81.8401 119.21 81.7204 119.242 81.6166 119.258C81.4569 117.124 80.8581 114.792 80.5388 112.674C80.443 112.013 80.0598 105.788 80.1796 103.2C80.1875 102.81 80.2115 102.436 80.2434 102.046C80.3472 99.8963 80.3392 97.7388 80.1955 95.5973C80.0598 92.9383 79.8602 90.2951 79.6207 87.652C79.4211 85.399 79.1976 83.1619 78.9341 80.9169C78.9341 80.893 78.9341 80.8532 78.9261 80.8293C80.6586 81.1955 82.4229 81.3786 84.1953 81.3707C85.0575 81.3707 85.9197 81.3229 86.766 81.2353C86.8218 84.579 86.8139 87.9147 86.6941 91.2584C86.6063 93.7105 86.4546 96.1466 86.239 98.5827C86.0634 100.501 85.8478 102.42 85.6403 104.339C85.4327 106.257 85.2571 108.152 85.1453 110.063C85.0096 112.475 84.9856 114.903 85.0176 117.323M89.4404 117.968H89.4165C89.3526 117.984 89.2967 118.024 89.3207 118.096C89.3207 118.852 89.185 119.6 89.153 120.357C88.698 120.15 88.2349 119.927 87.7958 119.688C87.1571 119.361 86.5664 118.987 86.0075 118.541C85.8878 118.446 85.8079 118.334 85.7041 118.223C85.6882 118.207 85.6722 118.191 85.6483 118.175C85.5924 115.723 85.5924 113.279 85.7121 110.827C85.792 109.163 85.9197 107.499 86.0794 105.827C86.1033 105.541 86.1353 105.262 86.1672 104.984C86.3668 103.097 86.5903 101.202 86.766 99.3152C86.9895 96.9746 87.1571 94.626 87.2609 92.2775C87.4046 88.9577 87.4206 85.6219 87.3887 82.3021V81.9439C87.3887 81.6811 87.3887 81.4105 87.3807 81.1477H87.4366C87.5962 81.1239 87.6761 81.1 87.6761 81.1C88.0832 71.3475 89.9274 67.3828 90.6539 66.2284C91.3884 65.4005 92.3305 64.7715 93.3763 64.3974L93.3603 64.4133L93.3364 64.4292C93.2645 64.4929 93.1288 64.5964 92.9532 64.7556C92.9452 64.7636 92.9372 64.7715 92.9133 64.7795C92.2586 65.3686 91.1409 66.4354 91.1409 67.0325C91.1409 69.0069 91.2287 75.4873 91.2287 81.0602L91.3166 81.1079C91.3645 82.74 91.3645 84.3641 91.3325 85.9961C91.3166 87.1425 91.2846 88.273 91.2527 89.4194C91.1569 92.5163 91.0132 95.6052 90.8296 98.7021C90.6619 101.624 90.4623 104.554 90.2468 107.475C90.0791 109.768 89.8955 112.069 89.7199 114.362C89.632 115.556 89.5043 116.758 89.4564 117.952M93.7036 116.774C93.7036 116.774 93.6477 116.75 93.6318 116.742C93.4162 116.663 93.1927 116.631 92.9691 116.647C92.7217 116.694 92.4742 116.798 92.2826 116.981C91.9872 117.204 91.6998 117.459 91.4283 117.729C91.1888 117.952 90.8695 118.072 90.5422 118.064C90.3745 118.064 90.2068 118.064 90.0392 118.056C90.0472 117.777 90.0631 117.491 90.0951 117.212C90.143 116.519 90.1909 115.835 90.2468 115.142C90.4144 112.953 90.5901 110.763 90.7577 108.582C90.9653 105.708 91.1729 102.842 91.3405 99.968C91.5321 96.8711 91.6918 93.7742 91.7956 90.6773C91.8914 87.8113 91.9552 84.9532 91.9153 82.0951C91.9153 81.8643 91.9073 81.6254 91.8994 81.3945C93.2406 81.8563 94.6537 82.0712 96.0668 82.0394H98.8211C98.5017 85.1443 98.2223 88.2491 97.9189 91.354C97.8311 92.2456 97.7273 93.1373 97.6156 94.0289C97.6076 94.1404 97.5916 94.2439 97.5677 94.3553C97.4319 95.4381 97.2643 96.5049 97.0727 97.5796C96.6256 100.048 96.1945 102.524 95.7634 104.999C95.3003 107.698 94.8213 110.397 94.3583 113.104L93.8553 116.01C93.8074 116.28 93.7595 116.551 93.7116 116.822" fill="black"/>
<path d="M86.5088 94.3643C86.381 94.2927 86.2293 94.2768 86.0856 94.3086C85.3032 94.5872 84.4809 94.7067 83.6586 94.6669C83.5868 94.6669 83.3952 94.6748 83.4351 94.7863C83.475 94.8977 83.7065 94.9137 83.7864 94.9137C84.4171 94.9375 85.0398 94.8898 85.6625 94.7544C85.9419 94.6987 86.2213 94.6271 86.4848 94.5315C86.5806 94.4917 86.6125 94.4201 86.5008 94.3723" fill="black"/>
<path d="M98.0609 94.1495C97.9332 94.0778 97.7815 94.0619 97.6378 94.0938C97.5899 94.1097 97.55 94.1176 97.5021 94.1336C97.4542 94.1415 97.4143 94.1495 97.3584 94.1574L97.2785 94.1734C97.2785 94.1734 97.1987 94.1813 97.1588 94.1893C96.6957 94.245 96.2088 94.2291 95.7457 94.1495C95.6739 94.1415 95.4503 94.1256 95.4344 94.2291C95.4184 94.3406 95.6579 94.3724 95.7138 94.3804C96.2726 94.4679 96.8474 94.4759 97.4063 94.4281C97.6139 94.4122 97.8294 94.3724 98.021 94.3087C98.1168 94.2689 98.1488 94.1973 98.037 94.1495" fill="black"/>
<path d="M80.6351 6.23301C80.5872 6.32854 81.3137 6.49572 81.3855 6.34445C82.128 5.05474 83.4533 4.22678 84.9302 4.12329C85.05 4.10736 85.01 3.93222 84.9222 3.90833C83.1659 3.78096 81.4973 4.68854 80.6351 6.24097V6.23301Z" fill="white"/>
<path d="M80.7215 8.45444C80.6736 8.59775 81.2564 9.08338 81.3123 8.92415C81.9111 7.61853 83.0847 6.67115 84.4977 6.36862C84.5935 6.34474 84.6973 6.30493 84.8331 6.28105C84.9528 6.25717 84.9528 6.13775 84.857 6.07406C84.6494 5.9626 84.4179 5.93076 84.1944 5.97853C82.6935 6.17756 81.4001 7.10901 80.7215 8.46241" fill="white"/>
<path d="M75.0938 90.8198C75.7644 90.7402 76.4031 90.5014 76.9779 90.1352C77.1855 89.9839 77.1695 89.3709 76.8342 89.4187C76.2514 89.769 75.6127 90.0157 74.9421 90.1192C74.7505 90.175 74.6467 90.374 74.7026 90.5571C74.7585 90.7402 74.9261 90.8437 75.1097 90.8119" fill="white"/>
</g>
<defs>
<clipPath id="clip0_655_11412">
<rect width="113" height="128" fill="white"/>
</clipPath>
</defs>
</svg>
