<svg width="27" height="27" viewBox="0 0 27 27" fill="none" xmlns="http://www.w3.org/2000/svg">
<path d="M13.3254 14.3024C13.8647 14.3024 14.3019 14.7396 14.3019 15.279V15.6045C14.3019 16.888 13.0913 18.2087 11.0467 18.2087C9.00212 18.2087 7.7915 16.888 7.7915 15.6045V15.279C7.7915 14.7396 8.22873 14.3024 8.76807 14.3024H13.3254ZM13.3254 14.9535H8.76807C8.58829 14.9535 8.44255 15.0992 8.44255 15.279V15.6045C8.44255 16.5405 9.37494 17.5576 11.0467 17.5576C12.7185 17.5576 13.6509 16.5405 13.6509 15.6045V15.279C13.6509 15.0992 13.5051 14.9535 13.3254 14.9535ZM11.0467 10.0706C12.0355 10.0706 12.8371 10.8722 12.8371 11.861C12.8371 12.8498 12.0355 13.6514 11.0467 13.6514C10.0579 13.6514 9.25635 12.8498 9.25635 11.861C9.25635 10.8722 10.0579 10.0706 11.0467 10.0706ZM16.9061 7.79199C17.5925 7.79199 18.1549 8.32316 18.2046 8.9969L18.2082 9.09408V10.3962C18.2082 11.0826 17.677 11.645 17.0033 11.6947L16.9061 11.6982H15.9289L15.1489 12.7398C14.8043 13.1995 14.1043 13.0133 13.9922 12.4953L13.9807 12.4226L13.9769 12.3493L13.9764 11.6559L13.9259 11.6431C13.4536 11.5009 13.0944 11.0977 13.0159 10.6011L13.0034 10.4933L12.9998 10.3962V9.09408C12.9998 8.40764 13.531 7.84527 14.2047 7.79556L14.3019 7.79199H16.9061ZM11.0467 10.7217C10.4175 10.7217 9.90739 11.2318 9.90739 11.861C9.90739 12.4902 10.4175 13.0003 11.0467 13.0003C11.6759 13.0003 12.186 12.4902 12.186 11.861C12.186 11.2318 11.6759 10.7217 11.0467 10.7217ZM16.9061 8.44303H14.3019C13.968 8.44303 13.6929 8.69436 13.6553 9.01815L13.6509 9.09408V10.3962C13.6509 10.73 13.9022 11.0052 14.226 11.0428L14.3019 11.0472H14.628V12.3493L15.604 11.0472H16.9061C17.24 11.0472 17.5151 10.7959 17.5527 10.4721L17.5571 10.3962V9.09408C17.5571 8.7602 17.3058 8.48502 16.982 8.44741L16.9061 8.44303Z" fill="white"/>
</svg>
